# xmcd
#
# Track frame offsets:
#	150
#	17230
#	35145
#	50700
#	66019
#	83342
#	96789
#	108820
#	125529
#	140804
#	157745
#
# Disc length: 2359 seconds
#
# Revision: 1
# Processed by: cddbd v1.4PL0 Copyright (c) Steve Scherf et al.
# Submitted via: audiograbber 1.82.00
#
DISCID=8c09350b
DTITLE=Smokey Wilson - Texas Saturday Night
DYEAR=2002
DGENRE=Country
TTITLE0=Texas Saturday Night
TTITLE1=Cowboy in the Whitehouse
TTITLE2=Fishin'
TTITLE3=Mexico
TTITLE4=Day by Day
TTITLE5=Dumped in Dumas
TTITLE6=Cajun Saturday Night
TTITLE7=Mopac Blues
TTITLE8=Right to sing the blues
TTITLE9=Texas Bitch
TTITLE10=Moon over Terlingua
EXTD=
EXTT0=
EXTT1=
EXTT2=
EXTT3=
EXTT4=
EXTT5=
EXTT6=
EXTT7=
EXTT8=
EXTT9=
EXTT10=
PLAYORDER=
